<svg xmlns="http://www.w3.org/2000/svg" viewBox="0 0 512 512"><g fill="#F4C711"><path d="M266.5 35.4a8.5 8.5 0 1 0-4.2 16.6 25.5 25.5 0 0 1 18.5 18.5 8.5 8.5 0 0 0 16.6-4.2 42.6 42.6 0 0 0-31-30.9z"/><path d="M349.9 426.7h-1.1a41.5 41.5 0 0 0 9.6-25.6c0-16.7-8.2-33.6-17.8-53.3-11.6-24-24.9-51.2-24.9-83.3a354 354 0 0 1 6.9-77.8 25.6 25.6 0 0 0-6.9-50.2h-11.5A76.7 76.7 0 0 0 256 0a76.9 76.9 0 0 0-48.2 136.5h-11.5a25.6 25.6 0 0 0 0 51.2h85.3a8.5 8.5 0 1 0 0-17h-85.3a8.5 8.5 0 0 1 0-17.1h119.4a8.5 8.5 0 0 1 0 17l-.3.1c-.6 0-1.2.2-1.8.4l-1.4.4c-.5.2-1 .6-1.4 1-.4.2-.9.5-1.3.9l-.8 1.2c-.3.5-.7 1-.9 1.6l-.2.3c-.3 1.1-9 27.6-9 88 0 36 14.8 66.4 26.7 90.8 8.6 17.7 16 33 16 45.8 0 12.4-13.1 25.6-25.6 25.6h-85.3a8.5 8.5 0 1 0 0 17h119.5c12.4 0 25.6 13.2 25.6 25.6V495h-239v-25.6c0-12.4 13.2-25.6 25.6-25.6h34.2a8.5 8.5 0 1 0 0-17c-12.5 0-25.6-13.2-25.6-25.6 0-12.8 7.4-28 16-45.8 11.9-24.4 26.6-54.8 26.6-90.8 0-11.2-1.4-28.8-4.1-52.3a8.5 8.5 0 1 0-17 2c2.7 22.5 4 40 4 50.3 0 32-13.2 59.3-24.8 83.3-9.6 19.7-17.8 36.6-17.8 53.3 0 9.2 3.7 18.2 9.6 25.6h-1a45 45 0 0 0-42.7 42.6v34.2c0 4.7 3.8 8.5 8.5 8.5h256c4.7 0 8.5-3.8 8.5-8.5v-34.2a45 45 0 0 0-42.6-42.6zM256 136.5a59.8 59.8 0 1 1 .1-119.6 59.8 59.8 0 0 1-.1 119.6z"/></g></svg>
